<svg preserveAspectRatio="none" width="100%" height="100%" overflow="visible" style="display: block;" viewBox="0 0 18 18" fill="none" xmlns="http://www.w3.org/2000/svg">
<g id="Layer_1" clip-path="url(#clip0_0_22)">
<path id="Vector" d="M17.25 16.5H3.75C2.51 16.5 1.5 15.49 1.5 14.25V0.75C1.5 0.34 1.16 0 0.75 0C0.34 0 0 0.34 0 0.75V14.25C0 16.32 1.68 18 3.75 18H17.25C17.66 18 18 17.66 18 17.25C18 16.84 17.66 16.5 17.25 16.5Z" fill="var(--fill-0, #9095AC)"/>
<path id="Vector_2" d="M4.5 15C4.91 15 5.25 14.66 5.25 14.25V9C5.25 8.59 4.91 8.25 4.5 8.25C4.09 8.25 3.75 8.59 3.75 9V14.25C3.75 14.66 4.09 15 4.5 15Z" fill="var(--fill-0, #9095AC)"/>
<path id="Vector_3" d="M7.5 7.5V14.25C7.5 14.66 7.84 15 8.25 15C8.66 15 9 14.66 9 14.25V7.5C9 7.09 8.66 6.75 8.25 6.75C7.84 6.75 7.5 7.09 7.5 7.5Z" fill="var(--fill-0, #9095AC)"/>
<path id="Vector_4" d="M11.25 9.75V14.25C11.25 14.66 11.59 15 12 15C12.41 15 12.75 14.66 12.75 14.25V9.75C12.75 9.34 12.41 9 12 9C11.59 9 11.25 9.34 11.25 9.75Z" fill="var(--fill-0, #9095AC)"/>
<path id="Vector_5" d="M15 6.75V14.25C15 14.66 15.34 15 15.75 15C16.16 15 16.5 14.66 16.5 14.25V6.75C16.5 6.34 16.16 6 15.75 6C15.34 6 15 6.34 15 6.75Z" fill="var(--fill-0, #9095AC)"/>
<path id="Vector_6" d="M4.5 6.75C4.7 6.75 4.89 6.67 5.03 6.53L7.72 3.84C8.02 3.56 8.48 3.56 8.78 3.84L10.41 5.47C11.29 6.35 12.71 6.35 13.59 5.47L17.78 1.28C18.07 0.98 18.06 0.51 17.76 0.22C17.47 -0.06 17.01 -0.06 16.72 0.22L12.53 4.41C12.24 4.7 11.76 4.7 11.47 4.41L9.84 2.78C8.96 1.9 7.54 1.9 6.66 2.78L3.97 5.47C3.68 5.76 3.68 6.24 3.97 6.53C4.11 6.67 4.3 6.75 4.5 6.75Z" fill="var(--fill-0, #9095AC)"/>
</g>
<defs>
<clipPath id="clip0_0_22">
<rect width="18" height="18" fill="white"/>
</clipPath>
</defs>
</svg>
