<svg preserveAspectRatio="none" width="100%" height="100%" overflow="visible" style="display: block;" viewBox="0 0 32 33" fill="none" xmlns="http://www.w3.org/2000/svg">
<g id="Layer_1" clip-path="url(#clip0_0_423)">
<path id="Vector" fill-rule="evenodd" clip-rule="evenodd" d="M1.28 24.4286V9.29143C1.9456 10.0114 2.8672 10.7143 4.06187 11.3486C6.77547 12.7886 10.6155 13.7143 14.9333 13.7143C19.2512 13.7143 23.0912 12.7886 25.8048 11.3486C26.9995 10.7143 27.9211 10.0114 28.5867 9.29143V14.5371C27.0507 13.7314 25.3099 13.2857 23.4667 13.2857C17.3397 13.2857 12.3733 18.2743 12.3733 24.4286C12.3733 26.64 13.0048 28.68 14.1141 30.4114C6.9632 30.2229 1.28 27.6171 1.28 24.4286Z" fill="var(--fill-0, #E5E5E8)"/>
<path id="Vector_2" fill-rule="evenodd" clip-rule="evenodd" d="M27.3067 11.4857V14.1429H29.8667V7.28571C29.8667 6.03429 29.2864 4.93714 28.4331 4.06286C27.5968 3.18857 26.4363 2.45143 25.1051 1.86857C22.4427 0.702857 18.8416 0 14.9333 0C11.0251 0 7.44107 0.685714 4.7616 1.86857C3.4304 2.45143 2.26987 3.18857 1.4336 4.06286C0.580267 4.93714 0 6.03429 0 7.28571V24.4286C0 26.64 1.77493 28.32 3.85707 29.4171C6.02453 30.5657 8.97707 31.3371 12.2539 31.6114C12.544 31.6286 12.8512 31.6629 13.1413 31.68L13.2779 29.1086C13.0048 29.1086 12.7317 29.0743 12.4587 29.0571C9.4208 28.8 6.82667 28.0971 5.03467 27.1543C3.15733 26.1771 2.54293 25.1657 2.54293 24.4457V20.0571C2.95253 20.3486 3.39627 20.6229 3.84 20.8629C6.00747 22.0114 8.96 22.7829 12.2368 23.0571L12.4416 20.5029C9.40373 20.2457 6.8096 19.5429 5.0176 18.6C3.14027 17.6229 2.52587 16.6114 2.52587 15.8914V11.52C3.1744 11.9829 3.92533 12.3943 4.72747 12.7543C7.38987 13.92 10.9909 14.6229 14.8992 14.6229C18.8075 14.6229 22.3915 13.9371 25.0709 12.7543C25.8731 12.3943 26.624 11.9829 27.2725 11.52L27.3067 11.4857ZM3.2768 5.84571C2.74773 6.39429 2.56 6.89143 2.56 7.28571C2.56 7.68 2.74773 8.17714 3.2768 8.72571C3.82293 9.29143 4.6592 9.84 5.80267 10.3543C8.07253 11.3486 11.3152 12 14.9504 12C18.5856 12 21.8112 11.3486 24.0981 10.3543C25.2416 9.85714 26.0779 9.29143 26.624 8.72571C27.1531 8.17714 27.3408 7.68 27.3408 7.28571C27.3408 6.89143 27.1531 6.39429 26.624 5.84571C26.0779 5.28 25.2416 4.73143 24.0981 4.21714C21.8283 3.22286 18.5856 2.57143 14.9504 2.57143C11.3152 2.57143 8.0896 3.22286 5.80267 4.21714C4.6592 4.71429 3.82293 5.28 3.2768 5.84571Z" fill="var(--fill-0, #767676)"/>
<path id="Vector_3" fill-rule="evenodd" clip-rule="evenodd" d="M32 24.4286C32 29.16 28.1771 33 23.4667 33C18.7563 33 14.9333 29.16 14.9333 24.4286C14.9333 19.6971 18.7563 15.8571 23.4667 15.8571C28.1771 15.8571 32 19.6971 32 24.4286ZM26.9141 29.3314C25.9413 30.0343 24.7467 30.4286 23.4667 30.4286C20.1728 30.4286 17.4933 27.7371 17.4933 24.4286C17.4933 23.1429 17.9029 21.9429 18.5856 20.9657L26.9141 29.3314ZM28.6379 27.4286L20.48 19.2343C21.3504 18.72 22.3744 18.4286 23.4667 18.4286C26.7605 18.4286 29.44 21.12 29.44 24.4286C29.44 25.5257 29.1499 26.5371 28.6379 27.4286Z" fill="var(--fill-0, #767676)"/>
</g>
<defs>
<clipPath id="clip0_0_423">
<rect width="32" height="33" fill="white"/>
</clipPath>
</defs>
</svg>
