<svg preserveAspectRatio="none" width="100%" height="100%" overflow="visible" style="display: block;" viewBox="0 0 18 18" fill="none" xmlns="http://www.w3.org/2000/svg">
<g id="More">
<path id="Border" d="M9 0.5C13.6944 0.5 17.5 4.30558 17.5 9C17.5 13.6944 13.6944 17.5 9 17.5C4.30558 17.5 0.5 13.6944 0.5 9C0.5 4.30558 4.30558 0.5 9 0.5Z" stroke="var(--stroke-0, #CCCCCC)" stroke-opacity="0.5"/>
<g id="chevron-down">
<path id="Shape" d="M9 9.79289L6.73162 7.14645C6.56425 6.95118 6.29289 6.95118 6.12553 7.14645C5.95816 7.34171 5.95816 7.65829 6.12553 7.85355L8.69695 10.8536C8.86432 11.0488 9.13568 11.0488 9.30305 10.8536L11.8745 7.85355C12.0418 7.65829 12.0418 7.34171 11.8745 7.14645C11.7071 6.95118 11.4358 6.95118 11.2684 7.14645L9 9.79289Z" fill="var(--fill-0, #77777C)"/>
<mask id="mask0_0_17" style="mask-type:luminance" maskUnits="userSpaceOnUse" x="6" y="7" width="6" height="4">
<path id="Shape_2" d="M9 9.79289L6.73162 7.14645C6.56425 6.95118 6.29289 6.95118 6.12553 7.14645C5.95816 7.34171 5.95816 7.65829 6.12553 7.85355L8.69695 10.8536C8.86432 11.0488 9.13568 11.0488 9.30305 10.8536L11.8745 7.85355C12.0418 7.65829 12.0418 7.34171 11.8745 7.14645C11.7071 6.95118 11.4358 6.95118 11.2684 7.14645L9 9.79289Z" fill="var(--fill-0, white)"/>
</mask>
<g mask="url(#mask0_0_17)">
</g>
</g>
</g>
</svg>
